<svg width="1411" height="1412" xmlns="http://www.w3.org/2000/svg" xmlns:xlink="http://www.w3.org/1999/xlink" xml:space="preserve" overflow="hidden"><g transform="translate(-1494 -531)"><g><path d="M1496 768.505C1496 638.991 1600.99 534 1730.51 534L2669.5 534C2799.01 534 2904 638.991 2904 768.505L2904 1706.49C2904 1836.01 2799.01 1941 2669.5 1941L1730.51 1941C1600.99 1941 1496 1836.01 1496 1706.49Z" fill="#000000" fill-rule="evenodd" fill-opacity="1"/><path d="M2487.14 1697 1970.29 1697C1875.17 1697 1798 1619.82 1798 1524.69L1798 950.312C1798 855.182 1875.17 778 1970.29 778L2515.86 778C2563.42 778 2602 816.591 2602 864.156L2602 1381.09C2602 1418.61 2577.95 1450.56 2544.57 1462.4L2544.57 1582.13C2576.34 1582.13 2602 1607.79 2602 1639.56 2602 1671.33 2576.34 1697 2544.57 1697L2487.14 1697ZM1970.29 1467.25C1938.52 1467.25 1912.86 1492.92 1912.86 1524.69 1912.86 1556.46 1938.52 1582.13 1970.29 1582.13L2429.71 1582.13 2429.71 1467.25 1970.29 1467.25ZM2027.71 1050.83C2027.71 1074.7 2046.92 1093.91 2070.79 1093.91L2386.64 1093.91C2410.51 1093.91 2429.71 1074.7 2429.71 1050.83 2429.71 1026.96 2410.51 1007.75 2386.64 1007.75L2070.79 1007.75C2046.92 1007.75 2027.71 1026.96 2027.71 1050.83ZM2070.79 1180.06C2046.92 1180.06 2027.71 1199.27 2027.71 1223.14 2027.71 1247.01 2046.92 1266.22 2070.79 1266.22L2386.64 1266.22C2410.51 1266.22 2429.71 1247.01 2429.71 1223.14 2429.71 1199.27 2410.51 1180.06 2386.64 1180.06L2070.79 1180.06Z" fill="#FFFFFF" fill-rule="evenodd" fill-opacity="1"/></g></g></svg>